<?xml version="1.0" standalone="no"?>
<!DOCTYPE svg PUBLIC "-//W3C//DTD SVG 20010904//EN"
 "http://www.w3.org/TR/2001/REC-SVG-20010904/DTD/svg10.dtd">
<svg version="1.0" xmlns="http://www.w3.org/2000/svg"
 width="276.000000pt" height="240.000000pt" viewBox="0 0 276.000000 240.000000"
 preserveAspectRatio="xMidYMid meet">
<metadata>
Created by potrace 1.10, written by Peter Selinger 2001-2011
</metadata>
<g transform="translate(0.000000,240.000000) scale(0.050000,-0.050000)"
fill="#000000">
<path d="M365 4761 c6 -71 95 -75 95 -5 1 26 4 28 18 7 13 -21 19 -20 29 5 9
26 -3 32 -66 32 -66 0 -78 -6 -76 -39z"/>
<path d="M3647 4577 c-18 -20 -42 -30 -55 -23 -12 7 -16 6 -9 -2 8 -9 -1 -32
-19 -53 -24 -28 -36 -32 -48 -14 -11 18 -15 14 -16 -10 0 -19 -7 -34 -15 -32
-23 5 -91 -26 -129 -58 -18 -16 -49 -25 -70 -21 -20 5 -56 -13 -80 -38 -24
-25 -58 -46 -74 -46 -20 0 -26 -11 -19 -31 7 -17 4 -29 -6 -27 -50 9 -90 -6
-101 -37 -21 -57 -123 -166 -136 -144 -14 22 -70 -25 -70 -60 0 -12 -23 -32
-51 -45 -30 -14 -46 -34 -40 -51 7 -17 2 -22 -12 -13 -16 10 -20 0 -12 -30 8
-28 2 -48 -15 -55 -15 -6 -23 -23 -17 -39 7 -16 -1 -28 -19 -28 -16 0 -35 -22
-42 -50 -7 -27 -26 -50 -42 -50 -17 0 -30 -13 -30 -30 0 -16 -13 -30 -29 -30
-16 0 -41 -18 -57 -40 -15 -22 -34 -34 -41 -27 -7 8 -13 -1 -13 -20 0 -18 -9
-33 -21 -33 -11 0 -19 -11 -18 -25 9 -65 -3 -136 -20 -125 -11 6 -26 -11 -33
-39 -7 -28 -25 -51 -40 -51 -15 0 -28 -9 -28 -20 0 -11 10 -20 23 -20 15 0 12
-13 -7 -35 -39 -45 -57 -141 -28 -152 12 -5 4 -10 -18 -11 -89 -4 -110 -10
-110 -31 0 -23 -77 -80 -110 -81 -38 -2 -130 -112 -130 -156 -1 -35 -4 -38
-19 -15 -16 26 -21 25 -32 -4 -7 -18 -7 -43 1 -55 7 -11 6 -20 -4 -18 -46 8
-75 -3 -50 -19 40 -25 9 -74 -67 -103 -38 -15 -69 -35 -69 -44 0 -9 -7 -15
-15 -14 -40 7 -66 -4 -55 -22 7 -11 4 -20 -7 -20 -11 0 -36 -5 -56 -12 -32
-10 -33 -8 -7 12 26 20 25 22 -7 12 -20 -7 -46 -12 -57 -12 -14 0 -13 -10 2
-27 18 -23 9 -27 -50 -25 -60 2 -76 -7 -91 -46 -15 -41 -14 -44 13 -22 17 14
30 16 30 5 0 -29 -53 -46 -93 -31 -24 9 -29 5 -18 -13 12 -19 7 -20 -24 -4
-33 18 -43 13 -62 -28 -12 -27 -32 -49 -44 -49 -12 0 -35 -13 -52 -30 -16 -16
-23 -30 -15 -30 8 0 -2 -18 -21 -39 -20 -22 -41 -39 -48 -38 -50 6 -78 -8 -76
-38 2 -20 -9 -33 -24 -29 -19 4 -23 -12 -15 -60 8 -42 6 -52 -4 -29 -15 36
-18 36 -51 3 -19 -19 -57 -35 -84 -35 -26 0 -43 -9 -37 -19 7 -10 -7 -7 -30 7
-38 24 -52 57 -44 103 2 10 -6 12 -16 5 -11 -6 -25 -3 -32 9 -7 11 -1 20 14
20 20 1 21 4 1 16 -14 9 -26 54 -28 100 -2 46 -10 84 -18 84 -8 0 -14 22 -14
48 0 31 9 45 25 39 31 -12 52 38 30 72 -8 15 -9 51 0 82 10 35 8 63 -7 78 -17
17 -16 27 4 39 33 21 44 162 15 201 -17 22 -16 25 3 14 17 -11 25 -1 26 31 6
205 12 241 47 267 20 15 32 40 26 56 -8 20 0 26 25 19 20 -5 42 0 49 11 7 12
26 16 43 10 16 -6 29 -1 29 11 0 36 -62 51 -81 20 -14 -23 -26 -19 -63 17 -47
47 -71 260 -32 287 10 6 28 69 41 140 13 70 37 138 53 151 22 17 25 30 9 50
-89 113 -20 248 78 150 47 -46 70 -50 155 -23 31 10 41 7 31 -8 -7 -12 -4 -22
8 -22 30 0 26 59 -4 63 -14 1 -47 4 -75 5 -30 1 -50 14 -50 32 -1 17 -16 27
-35 24 -25 -4 -35 8 -37 40 0 25 -5 36 -11 23 -12 -30 -133 79 -140 126 -25
175 -149 276 -221 182 -35 -45 54 -215 111 -215 30 0 59 -63 51 -110 -16 -85
-13 -163 6 -201 12 -21 18 -57 14 -79 -4 -22 -12 -94 -18 -160 -20 -225 -17
-219 -141 -225 -94 -5 -118 2 -159 43 -26 26 -52 44 -57 38 -5 -5 -15 10 -23
32 -7 23 -23 43 -36 43 -13 1 -53 4 -89 8 -62 6 -65 3 -65 -63 0 -60 5 -67 40
-56 74 24 237 -46 273 -117 42 -84 88 -135 110 -121 9 6 17 1 17 -11 0 -11 7
-20 15 -19 59 10 95 -49 64 -104 -8 -15 -20 -57 -25 -92 -6 -35 -16 -73 -23
-85 -7 -11 -4 -21 9 -21 15 0 15 -11 0 -40 -12 -22 -19 -69 -17 -105 2 -36
-11 -97 -29 -135 -25 -52 -29 -86 -16 -133 41 -143 -148 -297 -222 -181 -9 13
-16 15 -16 4 -1 -11 -14 -3 -31 19 -20 27 -29 30 -28 10 0 -16 41 -69 90 -119
49 -49 89 -100 89 -113 0 -13 7 -27 16 -30 37 -16 106 -221 94 -278 -14 -63
18 -86 160 -114 33 -6 95 -33 137 -60 42 -26 80 -45 84 -41 4 4 42 83 85 177
100 215 139 250 444 395 253 121 540 312 540 359 0 14 9 25 20 25 11 0 32 29
47 65 59 137 186 238 290 233 82 -5 92 -1 89 33 -3 22 9 81 26 133 17 51 28
105 25 120 -6 33 70 180 112 215 17 14 31 41 31 58 0 18 32 68 70 112 39 43
70 90 70 104 0 36 324 419 436 515 14 12 46 40 70 63 52 48 298 169 343 169
18 0 40 21 49 46 25 64 72 98 147 106 36 4 92 11 125 17 33 5 98 2 144 -7 47
-9 80 -9 74 1 -6 9 -1 17 11 17 11 0 21 14 21 30 0 20 -20 30 -60 30 -33 0
-60 7 -60 16 0 42 -254 43 -293 1z"/>
<path d="M4080 4541 c0 -21 -5 -52 -12 -69 -8 -20 -2 -32 15 -32 15 0 52 -22
81 -50 30 -27 63 -50 73 -50 10 0 29 -13 43 -30 13 -16 31 -25 40 -20 8 5 54
-13 103 -40 48 -28 119 -63 157 -80 39 -16 102 -46 141 -66 59 -30 76 -32 96
-10 14 14 16 26 4 26 -11 0 -15 14 -8 30 13 33 -23 42 -43 10 -7 -12 -21 -15
-32 -9 -10 6 -13 22 -5 34 8 14 2 17 -17 10 -20 -8 -40 6 -57 37 -14 26 -42
48 -61 48 -53 0 -138 43 -126 63 6 9 -26 17 -71 17 -80 0 -97 22 -83 106 2 9
-23 1 -55 -17 -65 -39 -140 5 -127 74 3 17 -8 37 -25 44 -21 8 -31 0 -31 -26z"/>
<path d="M4090 4269 c-74 -34 -176 -36 -311 -7 -95 20 -106 19 -151 -23 -69
-66 -60 -97 32 -111 44 -7 80 -22 80 -33 0 -11 13 -9 30 5 17 14 30 17 30 7 0
-22 236 -17 299 8 41 16 49 33 51 102 1 46 2 82 1 81 -1 -1 -28 -14 -61 -29z"/>
<path d="M4275 4072 c-19 -14 -35 -35 -35 -46 0 -11 -18 -36 -40 -56 -22 -20
-40 -45 -40 -56 0 -23 159 148 160 171 0 20 -4 19 -45 -13z"/>
<path d="M4340 3994 c0 -33 8 -51 20 -44 11 7 21 -6 23 -29 4 -79 9 -91 33
-86 14 3 30 -21 37 -53 8 -40 21 -56 39 -48 26 9 36 -16 34 -87 -1 -13 11 -19
26 -13 35 13 84 -36 72 -72 -6 -17 0 -22 14 -13 36 22 111 -8 84 -35 -39 -39
-23 -61 18 -24 22 20 40 27 40 15 0 -11 11 -25 25 -30 19 -7 25 15 22 82 -1
51 10 118 26 148 27 53 26 55 -25 55 -38 0 -49 -8 -41 -30 13 -32 -23 -38
-103 -17 -35 9 -42 22 -32 54 11 39 10 40 -15 8 -19 -24 -36 -29 -57 -15 -24
15 -25 23 -5 43 39 39 29 60 -14 33 -50 -31 -75 -7 -39 37 25 30 23 33 -16 23
-54 -14 -72 24 -28 60 28 23 26 24 -13 14 -35 -10 -49 -2 -64 34 -10 26 -19
33 -20 16 -1 -27 -4 -27 -21 0 -15 23 -19 17 -20 -26z"/>
<path d="M5481 3965 c-12 -30 -35 -78 -51 -107 -16 -28 -33 -100 -39 -160 -14
-153 -41 -309 -83 -478 -7 -27 -17 -79 -22 -115 -6 -36 -16 -61 -23 -57 -8 5
-14 -40 -15 -100 -2 -114 14 -130 93 -88 27 15 58 13 109 -9 l70 -29 0 599 c0
620 -1 635 -39 544z m-13 -765 c-6 -308 -4 -294 -39 -308 -17 -6 -26 -4 -20 6
6 10 -7 22 -28 27 -28 8 -35 2 -28 -22 5 -18 -4 -11 -20 17 -16 27 -25 56 -20
65 5 8 1 15 -9 15 -22 0 -6 96 18 111 10 6 18 33 18 59 0 26 8 52 17 58 15 10
67 164 74 222 20 150 41 4 37 -250z"/>
<path d="M1106 3865 c-23 -4 -54 -21 -67 -37 -21 -24 -18 -27 11 -15 24 9 32
6 23 -8 -8 -12 -5 -28 7 -35 11 -7 20 4 20 24 1 30 4 31 20 6 14 -22 19 -23
20 -4 0 17 14 22 38 15 47 -15 76 23 43 56 -13 13 -22 14 -20 3 8 -44 -2 -56
-26 -28 -14 17 -45 27 -69 23z"/>
<path d="M4241 3855 c-93 -113 -161 -200 -161 -208 0 -27 85 43 100 82 10 26
27 53 39 60 24 15 68 91 52 91 -5 0 -19 -11 -30 -25z"/>
<path d="M1271 3841 c-7 -11 -11 -22 -7 -23 3 0 21 -4 40 -8 19 -3 64 -27 99
-52 66 -47 137 -65 137 -35 0 10 10 17 21 17 12 0 17 -7 11 -17 -6 -9 2 -16
17 -16 36 0 8 78 -31 84 -57 10 -212 48 -243 60 -17 6 -37 2 -44 -10z"/>
<path d="M2118 3768 c-81 -98 19 -246 119 -176 57 40 60 158 4 187 -54 30 -92
26 -123 -11z"/>
<path d="M3834 3720 c6 -22 18 -45 28 -51 9 -6 12 -22 6 -36 -5 -15 4 -38 21
-52 38 -32 38 -30 -1 85 -31 91 -75 135 -54 54z"/>
<path d="M3928 3668 c7 -17 12 -35 12 -40 0 -4 13 -8 29 -8 16 0 38 -16 49
-35 10 -19 24 -29 31 -23 20 20 -11 78 -42 78 -15 0 -33 14 -40 30 -6 17 -20
30 -31 30 -11 0 -15 -14 -8 -32z"/>
<path d="M4173 3670 c-7 -16 -5 -48 4 -71 l15 -41 37 41 c21 23 30 48 21 56
-8 8 -19 4 -24 -10 -5 -14 -19 -25 -32 -25 -15 0 -15 7 2 24 13 13 24 31 24
40 0 28 -35 17 -47 -14z"/>
<path d="M3059 3629 c-13 -16 -31 -24 -39 -19 -9 5 -42 -4 -73 -20 -31 -16
-67 -30 -79 -30 -12 0 -53 -37 -90 -83 -37 -45 -84 -99 -103 -120 -19 -20 -35
-43 -35 -50 0 -7 -22 -33 -50 -59 -27 -25 -50 -55 -50 -66 0 -11 -12 -27 -26
-36 -40 -24 -114 -197 -136 -318 -11 -59 -60 -182 -109 -273 -90 -168 -128
-395 -67 -395 12 0 1 -17 -25 -38 l-47 -38 58 -47 c33 -26 68 -53 80 -61 54
-36 -15 -36 -75 0 -73 43 -266 71 -284 42 -6 -10 11 -18 39 -18 89 0 273 -80
291 -127 9 -24 45 -73 80 -109 34 -36 56 -75 49 -88 -9 -14 -5 -17 10 -8 14 9
70 -28 141 -93 101 -94 368 -255 422 -255 45 0 374 -173 421 -220 l52 -53 40
45 c23 25 47 62 55 82 19 48 108 -54 153 -177 46 -127 74 -119 68 20 -3 65
-12 131 -21 146 -8 15 -8 21 0 13 9 -8 29 -1 45 15 38 38 104 37 119 -1 6 -16
21 -30 32 -30 21 0 144 -118 151 -145 2 -8 9 -15 14 -15 6 0 33 0 60 0 28 0
50 8 50 18 0 10 -18 14 -40 8 -25 -7 -44 1 -52 22 -7 17 -24 32 -38 32 -15 0
-22 15 -17 35 5 23 -13 49 -52 75 -34 22 -61 46 -61 53 0 24 120 62 162 51 61
-16 258 126 258 186 0 17 8 41 18 51 16 16 62 221 62 274 0 46 -58 -47 -90
-145 -60 -186 -82 -216 -175 -241 -47 -13 -105 -33 -128 -44 -24 -11 -121 -21
-214 -23 -107 -1 -180 -11 -196 -27 -74 -74 -412 -18 -727 119 -306 134 -440
239 -501 391 -18 47 -41 85 -51 85 -10 0 -18 14 -18 31 0 16 -13 35 -29 41
-16 7 -23 25 -16 43 8 21 4 27 -12 17 -30 -18 -30 37 -1 92 17 31 16 45 -2 56
-17 11 -18 19 -2 29 12 7 22 3 22 -9 0 -13 11 -16 25 -7 14 9 41 13 60 10 23
-4 35 7 35 33 0 30 -11 36 -50 29 -44 -8 -49 -3 -46 43 3 28 12 52 20 52 33 0
14 38 -24 50 -22 7 -40 22 -40 34 0 13 12 11 31 -5 28 -23 30 -20 19 26 -10
38 -4 57 23 72 20 12 31 22 23 22 -8 1 -1 32 15 70 16 39 29 88 29 110 0 116
88 273 238 423 84 84 179 187 212 229 104 132 468 209 528 112 7 -11 62 -25
122 -33 61 -7 128 -30 150 -49 22 -20 76 -47 119 -61 95 -31 360 -287 343
-331 -6 -16 -3 -29 6 -29 21 0 63 -97 67 -157 2 -23 10 -43 17 -43 17 0 13
-41 -8 -74 -9 -13 3 -35 27 -53 26 -18 34 -34 20 -42 -11 -7 -21 -31 -21 -53
0 -22 9 -35 19 -28 12 7 13 -9 1 -44 -11 -31 -28 -144 -38 -251 -22 -216 -119
-460 -220 -552 -29 -26 -41 -42 -27 -34 16 9 21 3 13 -18 -7 -17 -22 -25 -35
-18 -13 8 -17 6 -9 -2 8 -9 6 -33 -5 -54 -11 -20 -13 -37 -3 -37 29 0 137 107
172 170 18 33 41 74 51 90 33 55 81 176 81 204 0 15 8 37 18 47 23 24 77 302
90 463 40 492 -454 1100 -883 1088 -25 -1 -45 5 -45 14 0 30 -316 23 -341 -7z"/>
<path d="M4323 3581 c-72 -90 -73 -93 -34 -108 18 -7 25 -1 19 14 -5 13 7 42
27 64 69 77 90 109 71 109 -11 0 -48 -35 -83 -79z"/>
<path d="M4452 3545 c-9 -8 -34 -15 -57 -15 -23 0 -46 -13 -51 -30 -9 -27 -6
-27 26 0 34 27 36 27 24 -7 -19 -49 24 -34 62 23 28 43 26 59 -4 29z"/>
<path d="M4040 3491 c0 -15 14 -42 31 -60 35 -34 89 -42 89 -12 0 10 -20 21
-45 25 -28 4 -44 19 -42 41 1 19 -5 35 -15 35 -10 0 -18 -13 -18 -29z"/>
<path d="M4444 3446 c-39 -47 -54 -80 -40 -88 12 -8 14 -26 5 -41 -8 -15 8 -5
38 21 29 27 59 42 67 34 8 -8 6 -20 -5 -28 -10 -8 -32 -32 -47 -54 -16 -22 4
-7 45 34 71 71 102 125 45 78 -22 -18 -30 -18 -37 2 -7 19 -20 16 -52 -12 -61
-55 -53 -15 11 52 29 30 48 60 43 66 -6 6 -39 -23 -73 -64z"/>
<path d="M4641 3327 c-65 -83 -34 -143 40 -76 49 44 51 16 4 -38 -35 -40 -35
-40 19 -2 61 44 90 93 45 76 -16 -6 -29 0 -29 14 0 17 -11 15 -37 -8 -48 -44
-77 -42 -39 2 16 19 36 46 44 60 25 44 -4 27 -47 -28z"/>
<path d="M4907 3355 c-21 -33 -21 -82 0 -97 9 -7 8 -43 -1 -80 -26 -98 -6
-196 31 -151 15 18 23 51 17 72 -5 22 -3 72 6 111 10 42 8 70 -3 70 -11 0 -14
17 -8 38 15 45 -19 74 -42 37z"/>
<path d="M4530 3200 c-20 -22 -26 -40 -14 -40 13 0 17 -15 10 -35 -11 -30 -7
-30 33 5 39 34 40 41 12 47 -26 5 -28 12 -10 35 36 43 10 33 -31 -12z"/>
<path d="M4754 3227 c-7 -7 -8 -34 -1 -60 7 -28 2 -47 -11 -47 -12 0 -22 7
-22 16 0 20 -82 19 -115 -2 -14 -9 -25 -25 -25 -36 0 -11 9 -15 20 -8 11 7 20
3 20 -9 0 -12 -13 -27 -30 -34 -16 -6 -30 -26 -30 -44 0 -23 14 -15 48 26 26
33 42 74 37 90 -7 19 4 14 27 -11 34 -38 41 -40 67 -12 20 21 31 23 37 7 11
-33 44 -28 44 7 0 17 -10 30 -21 30 -12 0 -16 8 -10 18 6 10 0 23 -14 29 -20
8 -20 10 0 11 14 1 25 11 25 22 0 23 -27 27 -46 7z"/>
<path d="M4380 3179 c0 -59 55 -112 86 -81 18 18 13 26 -22 35 -33 9 -42 22
-33 49 6 21 2 38 -10 38 -11 0 -21 -19 -21 -41z"/>
<path d="M3354 3120 c-7 -26 -21 -36 -41 -28 -26 10 -27 4 -7 -38 19 -41 30
-47 61 -30 37 20 53 9 81 -54 5 -11 17 -8 28 8 11 15 34 22 52 16 23 -9 32 -1
32 27 0 45 -8 47 -63 17 -47 -25 -122 27 -104 72 5 14 1 31 -9 38 -11 6 -24
-6 -30 -28z"/>
<path d="M2771 3102 c-6 -9 43 -52 109 -94 66 -42 120 -83 120 -91 0 -9 14
-11 30 -4 17 6 30 0 30 -13 0 -13 13 -19 30 -13 18 7 30 0 30 -18 0 -17 19
-29 48 -29 60 0 162 52 135 68 -11 7 -26 3 -34 -9 -9 -15 -25 -11 -48 10 -20
18 -56 36 -81 41 -38 7 -96 47 -160 110 -53 52 -186 79 -209 42z"/>
<path d="M4612 2987 c-30 -26 -44 -47 -31 -47 13 0 18 -14 11 -33 -11 -27 -8
-28 17 -8 16 13 40 18 53 10 15 -9 19 -7 11 6 -7 12 0 35 17 52 74 74 5 91
-78 20z"/>
<path d="M2593 2957 c-41 -23 -44 -77 -3 -77 16 0 78 -49 137 -108 162 -162
273 -204 273 -103 0 67 -154 191 -238 191 -46 0 -129 43 -109 56 38 24 -20 63
-60 41z"/>
<path d="M4369 2958 c-6 -10 3 -18 20 -18 17 0 31 -10 31 -21 0 -12 8 -16 18
-10 9 6 29 -3 42 -19 29 -35 60 -39 60 -8 0 12 -18 26 -40 32 -22 6 -40 18
-40 26 0 23 -78 39 -91 18z"/>
<path d="M4864 2936 c-33 -33 -30 -86 6 -116 17 -14 31 -22 32 -17 0 4 5 21 9
37 27 102 5 148 -47 96z"/>
<path d="M3706 2914 c-7 -12 -2 -25 10 -29 13 -5 24 -19 24 -33 0 -23 120 -92
160 -92 10 0 14 13 7 30 -6 16 -19 25 -30 18 -10 -6 -49 20 -88 59 -43 43 -74
61 -83 47z"/>
<path d="M3955 2884 c-7 -27 -2 -44 12 -44 13 0 50 -24 82 -54 42 -39 55 -44
45 -19 -8 20 -14 45 -14 55 0 10 -17 18 -37 18 -20 0 -46 20 -57 44 l-19 44
-12 -44z"/>
<path d="M4426 2853 c8 -20 14 -58 14 -85 0 -26 11 -48 23 -48 13 0 40 -15 60
-33 56 -50 44 -16 -14 42 -28 28 -46 60 -39 71 7 11 -3 36 -23 55 -33 33 -34
33 -21 -2z"/>
<path d="M4603 2828 c-15 -17 -23 -35 -17 -41 13 -12 94 37 94 58 0 26 -49 15
-77 -17z"/>
<path d="M4677 2794 c-28 -25 -61 -43 -74 -38 -39 13 -25 -45 17 -71 32 -21
40 -20 40 1 0 63 55 107 84 68 25 -34 27 -32 25 19 -3 72 -31 79 -92 21z"/>
<path d="M3440 2739 c0 -12 -11 -15 -25 -7 -14 7 -4 -8 21 -34 37 -39 49 -43
63 -20 11 18 8 38 -9 55 -33 32 -50 34 -50 6z"/>
<path d="M2600 2694 c1 -65 127 -131 275 -143 102 -9 97 19 -6 35 -40 7 -101
33 -136 60 -81 61 -133 80 -133 48z"/>
<path d="M4673 2670 c-6 -16 -28 -30 -47 -30 -45 0 -52 -141 -8 -156 17 -6 22
0 13 14 -8 13 -3 37 10 53 14 17 19 35 13 42 -36 35 66 94 104 59 23 -21 43
-27 50 -15 15 24 -21 50 -81 58 -24 3 -48 -7 -54 -25z"/>
<path d="M5465 2626 c-45 -9 -61 -54 -27 -75 23 -14 17 -211 -8 -251 -22 -36
-27 -160 -6 -160 9 0 16 14 16 30 0 17 10 30 22 30 12 0 17 -13 11 -30 -7 -16
-4 -30 6 -30 9 0 13 -18 7 -40 -6 -22 -1 -40 12 -40 15 0 22 90 22 290 0 160
-2 289 -5 287 -3 -1 -25 -6 -50 -11z"/>
<path d="M3650 2580 c-7 -11 0 -20 15 -20 36 0 108 -53 93 -69 -7 -7 -36 -3
-65 8 -29 11 -53 12 -53 3 0 -25 52 -64 66 -49 7 7 26 2 41 -10 15 -13 43 -18
61 -11 20 7 50 -2 73 -23 27 -24 47 -29 60 -16 22 22 -146 167 -194 167 -15 0
-27 9 -27 20 0 11 -13 20 -29 20 -16 0 -34 -9 -41 -20z"/>
<path d="M3188 2545 c18 -79 38 -125 54 -125 10 0 18 -12 18 -27 0 -72 74 -97
100 -34 14 34 33 61 42 61 10 0 18 10 18 22 0 16 -9 16 -29 -1 -31 -25 -71
-13 -71 21 0 11 8 15 19 9 10 -6 24 -3 31 9 7 11 -6 20 -28 20 -22 0 -50 18
-62 40 -27 51 -103 55 -92 5z"/>
<path d="M0 2440 c0 -92 4 -100 47 -100 56 0 61 115 7 169 -48 47 -54 39 -54
-69z"/>
<path d="M4745 2404 c-25 -52 -45 -110 -45 -128 0 -18 -12 -45 -27 -60 -28
-28 -125 -174 -167 -253 -45 -82 -58 -306 -18 -291 19 7 31 5 28 -5 -10 -29
23 -32 84 -7 38 16 62 43 70 82 7 32 21 63 32 69 10 6 18 73 18 149 0 76 8
143 18 148 37 24 103 392 69 392 -9 -1 -37 -44 -62 -96z"/>
<path d="M2680 2417 c-27 -10 -60 -40 -73 -67 -13 -28 -15 -45 -5 -39 10 6 18
1 18 -11 0 -12 9 -17 20 -10 11 7 34 4 52 -6 23 -13 47 -2 89 40 45 45 69 55
113 46 l56 -12 -49 36 c-54 40 -144 49 -221 23z"/>
<path d="M3522 2381 c-16 -10 -40 -13 -53 -8 -14 5 -31 -1 -39 -13 -23 -37
107 -155 206 -189 102 -35 233 -157 216 -202 -10 -27 7 -36 42 -24 23 8 5 99
-26 130 -15 15 -28 35 -28 44 0 48 -85 122 -113 98 -25 -20 -29 -15 -23 31 7
64 -130 165 -182 133z"/>
<path d="M1891 2282 c-6 -10 45 -26 114 -36 131 -19 155 -17 124 12 -28 26
-224 46 -238 24z"/>
<path d="M3136 2249 c-25 -26 -58 -48 -72 -49 -21 0 -20 -7 3 -30 17 -16 58
-30 92 -30 73 0 96 -40 69 -117 -18 -51 -86 -75 -90 -33 -3 43 -46 70 -108 70
-54 0 -80 17 -143 91 -57 67 -86 88 -112 78 -51 -19 -43 -55 25 -116 37 -33
60 -73 60 -104 0 -47 5 -50 70 -38 54 10 72 6 82 -19 7 -18 24 -32 38 -32 14
0 30 -18 36 -40 25 -95 141 -17 206 137 25 61 24 72 -13 124 -22 31 -39 64
-37 73 13 78 -46 98 -106 35z"/>
<path d="M1779 2170 c-21 -44 -26 -80 -15 -111 17 -46 -44 -133 -73 -103 -7 7
-8 -2 -1 -20 20 -51 -21 -61 -145 -35 -139 29 -368 30 -418 2 -46 -25 1 -37
185 -48 80 -5 159 -25 228 -59 l105 -52 107 113 108 113 -13 110 c-16 148 -31
168 -68 90z"/>
<path d="M1880 2215 c0 -39 73 -75 153 -75 81 0 43 47 -44 56 -44 4 -86 18
-94 31 -9 15 -14 10 -15 -12z"/>
<path d="M3461 2145 c-1 -35 73 -105 111 -105 27 0 28 5 8 30 -14 17 -34 30
-45 30 -11 0 -33 16 -47 35 -16 21 -27 25 -27 10z"/>
<path d="M1880 2120 c0 -28 70 -60 131 -60 46 0 50 4 28 31 -14 17 -35 27 -47
23 -12 -5 -42 -1 -67 8 -27 10 -45 9 -45 -2z"/>
<path d="M2460 2042 c0 -11 29 -25 65 -33 59 -12 120 -43 249 -124 40 -26 43
-25 41 12 -2 22 -8 39 -14 37 -6 -2 -53 26 -105 61 -90 63 -236 91 -236 47z"/>
<path d="M2431 1924 c10 -9 72 -33 136 -54 65 -21 143 -62 175 -92 32 -29 72
-59 90 -66 17 -7 36 -30 42 -52 6 -22 21 -40 33 -40 13 0 48 -13 78 -29 31
-16 59 -20 66 -10 6 11 34 19 62 19 91 0 26 122 -103 191 -37 21 -76 30 -84
20 -9 -9 -5 -20 8 -25 96 -34 164 -160 106 -196 -11 -7 -20 1 -20 17 0 48
-181 209 -308 273 -108 55 -336 90 -281 44z"/>
<path d="M1744 1712 c-24 -41 -44 -94 -43 -118 0 -31 14 -16 50 54 61 118 55
169 -7 64z"/>
<path d="M1103 1715 c-35 -35 -29 -96 8 -82 17 7 26 17 20 23 -6 6 -1 22 10
35 27 33 -7 55 -38 24z"/>
<path d="M2047 1716 c2 -7 -13 -25 -33 -40 -20 -15 -37 -47 -39 -72 -2 -24
-13 -41 -24 -37 -12 4 -18 23 -15 42 4 21 -2 30 -15 22 -11 -7 -21 -30 -21
-51 0 -20 -11 -41 -25 -46 -14 -5 18 -28 70 -51 129 -56 134 -118 10 -120
-105 -1 -263 98 -294 184 -32 89 -58 45 -35 -58 39 -169 174 -256 420 -271
167 -10 205 -19 232 -52 17 -22 75 -69 127 -104 159 -107 238 -304 115 -286
-60 9 -77 31 -40 54 13 8 12 27 -3 55 -22 41 -23 41 -51 -13 -17 -33 -40 -51
-57 -44 -15 5 -33 2 -40 -9 -6 -10 0 -19 13 -19 14 0 19 -5 13 -12 -17 -16
-115 52 -115 81 0 16 -22 21 -62 15 -99 -15 -131 72 -58 156 54 62 51 67 -20
30 -33 -17 -65 -30 -73 -29 -7 1 -19 -9 -28 -22 -14 -23 -290 84 -319 124 -6
8 -37 20 -70 27 -92 20 -210 74 -199 91 5 8 -9 11 -31 5 -23 -6 -40 -1 -40 13
0 13 -16 22 -35 19 -19 -2 -48 1 -65 8 -16 7 -52 15 -80 18 -27 4 -48 17 -46
29 2 12 -18 31 -45 44 -27 12 -49 14 -49 4 0 -10 16 -22 35 -27 28 -8 29 -10
3 -12 -55 -4 -105 68 -80 115 19 35 16 40 -18 38 -22 -2 -40 -9 -40 -17 0 -7
-22 -10 -49 -7 -62 7 -96 -33 -87 -103 6 -55 238 -153 406 -171 33 -4 69 -17
80 -30 11 -13 130 -61 265 -108 144 -49 349 -142 495 -223 141 -78 270 -137
295 -134 68 8 236 -19 534 -85 256 -57 438 -73 1101 -100 153 -6 329 22 303
48 -11 11 -42 20 -68 20 -46 0 -48 4 -33 83 22 111 22 177 0 163 -9 -6 -22 7
-28 29 -6 22 -20 40 -32 40 -28 0 -29 -33 -2 -50 11 -7 19 -32 19 -56 -2 -36
-4 -38 -15 -10 -12 29 -19 30 -53 5 -34 -25 -34 -29 -5 -29 19 0 34 -9 34 -19
0 -25 -130 -49 -160 -31 -13 8 -37 -5 -54 -29 -30 -43 -31 -43 -62 -5 -29 35
-37 36 -97 11 -61 -25 -68 -24 -92 13 -31 50 -55 51 -55 4 0 -44 -202 -50
-244 -8 -31 31 -96 31 -96 -1 0 -16 -6 -17 -15 -5 -17 23 -146 28 -132 5 5 -8
-4 -15 -20 -15 -16 0 -33 9 -37 21 -9 27 -156 61 -156 37 0 -86 -128 4 -237
166 -67 99 -277 316 -306 316 -10 0 -32 30 -50 67 -21 45 -43 65 -64 59 -49
-12 -207 147 -199 201 4 26 18 41 38 38 18 -3 44 19 59 50 15 30 31 61 34 68
4 7 -15 12 -42 10 -27 -2 -48 -9 -46 -17z"/>
<path d="M2272 1485 l-31 -95 49 60 c49 60 67 130 32 130 -10 0 -32 -43 -50
-95z"/>
<path d="M3882 1486 c-114 -22 -129 -79 -16 -66 125 13 172 36 131 62 -28 18
-36 18 -115 4z"/>
<path d="M4402 1343 c-18 -121 -18 -182 -1 -246 24 -90 -19 -155 -104 -157
-57 0 -81 -49 -54 -109 19 -41 35 -51 66 -42 127 37 143 35 208 -26 38 -36 80
-57 103 -53 22 4 48 -7 59 -26 11 -19 20 -26 20 -16 1 10 19 2 42 -19 22 -20
60 -40 84 -43 64 -10 135 -62 135 -99 0 -32 -4 -32 -140 2 -27 7 -7 -10 46
-39 52 -28 103 -47 113 -40 10 6 24 2 31 -10 7 -11 27 -20 45 -20 44 0 402
-140 416 -162 29 -46 49 -8 49 92 0 98 -5 110 -41 110 -23 0 -37 8 -31 17 12
20 -150 96 -243 114 -36 7 -60 21 -54 31 7 11 -10 15 -39 10 -29 -5 -52 -1
-52 9 0 11 -22 19 -49 19 -26 0 -63 15 -82 34 -50 50 -154 101 -235 117 -72
13 -189 118 -155 139 10 6 18 26 18 45 0 19 5 106 11 193 12 170 -26 305 -80
284 -15 -6 -35 4 -45 22 -12 22 -25 -16 -41 -131z m671 -873 c4 -11 -25 -21
-63 -22 -59 -2 -67 2 -47 26 26 31 100 28 110 -4z m174 -74 c-5 -9 16 -16 47
-17 31 0 79 -13 106 -29 48 -27 47 -28 -30 -17 -91 14 -233 88 -156 82 24 -2
39 -10 33 -19z"/>
</g>
</svg>
