<?xml version="1.0" encoding="utf-8"?>
<!-- Generator: Adobe Illustrator 15.0.0, SVG Export Plug-In . SVG Version: 6.00 Build 0)  -->
<!DOCTYPE svg PUBLIC "-//W3C//DTD SVG 1.1//EN" "http://www.w3.org/Graphics/SVG/1.1/DTD/svg11.dtd">
<svg version="1.1" id="id1" xmlns="http://www.w3.org/2000/svg" xmlns:xlink="http://www.w3.org/1999/xlink" x="0px" y="0px"
	 width="64px" height="64px" viewBox="0 0 64 64" enable-background="new 0 0 64 64" xml:space="preserve">
<path id="rect3792_4_" fill="#727373" d="M32.012,6
	C22.817,6,15,10.09,15,16v9h6v-8c0-4,5-6,11-6s11,2,11,6v8h6v-9c0-5.91-6.711-10-15.906-10H32.012z"/>
<polygon fill="#929292" points="54,58 10,58 10,27 54,27 54,33 32,33 32,37 54,37.072 54,41 32,41 32,45 54,45 54,49 32,49 32,53 
	54,53.071 "/>
<polyline fill="#727373" points="32,36.964 36,41 54,41 54,37 32,37 "/>
<polyline fill="#727373" points="32,44.964 36,49 54,49 54,45 32,45 "/>
<polyline fill="#727373" points="32,52.964 37,58 54,58 54,53 32,53 "/>
</svg>
