<?xml version="1.0" standalone="no"?>
<!DOCTYPE svg PUBLIC "-//W3C//DTD SVG 20010904//EN"
 "http://www.w3.org/TR/2001/REC-SVG-20010904/DTD/svg10.dtd">
<svg version="1.0" xmlns="http://www.w3.org/2000/svg"
 width="360.000000pt" height="360.000000pt" viewBox="0 0 360.000000 360.000000"
 preserveAspectRatio="xMidYMid meet">
<metadata>
Created by potrace 1.10, written by Peter Selinger 2001-2011
</metadata>
<g transform="translate(0.000000,360.000000) scale(0.100000,-0.100000)"
fill="#f02e1b" stroke="none">
<path d="M2990 2571 c-40 -11 -36 -37 9 -61 23 -11 41 -24 41 -29 0 -7 12 -23
50 -69 6 -7 15 -10 21 -7 15 10 11 42 -11 82 -11 21 -20 45 -20 55 0 31 -39
43 -90 29z"/>
<path d="M2880 2525 c-14 -8 -35 -14 -47 -15 -50 0 -65 -19 -40 -49 7 -9 21
-43 31 -76 38 -123 47 -152 77 -244 29 -90 30 -96 13 -108 -10 -7 -21 -13 -26
-13 -4 0 -8 -9 -8 -20 0 -21 -1 -21 87 16 17 8 37 14 45 15 26 1 116 34 119
44 2 6 -11 11 -30 12 -41 2 -43 4 -65 78 -10 33 -24 76 -31 95 -35 97 -75 237
-72 255 3 24 -20 29 -53 10z"/>
<path d="M2677 2464 c-26 -14 -28 -19 -22 -54 9 -55 38 -132 50 -134 6 0 12
34 15 76 4 52 11 83 23 96 9 10 17 22 17 25 0 13 -55 6 -83 -9z"/>
<path d="M2480 2405 c-14 -8 -34 -15 -45 -15 -11 0 -29 -7 -39 -15 -11 -8 -30
-15 -42 -15 -13 0 -25 -4 -29 -9 -3 -6 -27 -13 -53 -17 -64 -9 -68 -13 -38
-38 25 -20 59 -106 110 -281 10 -33 24 -75 32 -93 13 -30 13 -38 -1 -65 -18
-36 -12 -46 17 -28 30 19 136 51 169 51 15 0 30 4 34 9 3 5 20 13 37 17 18 3
39 10 48 15 8 4 23 10 34 13 17 6 18 13 12 69 -8 66 -24 94 -50 84 -11 -4 -16
-19 -16 -48 0 -36 -6 -47 -45 -86 -34 -33 -52 -44 -71 -41 -22 3 -29 14 -56
88 -16 47 -31 95 -32 107 -1 12 -9 39 -18 60 -28 70 -50 149 -46 169 3 16 12
19 65 19 56 0 65 -3 96 -33 59 -57 73 -37 35 48 -20 43 -27 50 -53 49 -16 0
-41 -6 -55 -14z"/>
<path d="M1962 2241 c-36 -7 -44 -24 -13 -29 28 -4 68 -55 81 -100 14 -50 13
-64 -7 -91 -15 -23 -15 -25 2 -37 10 -8 22 -14 25 -14 3 0 14 -26 24 -57 25
-83 45 -120 73 -138 21 -14 28 -14 77 1 35 11 59 25 66 40 16 28 7 43 -23 37
-21 -4 -26 2 -41 44 -29 82 -41 98 -78 101 -18 2 -37 7 -41 12 -11 10 9 50 25
50 18 0 37 33 37 65 0 42 -29 97 -59 112 -26 13 -91 15 -148 4z"/>
<path d="M2525 2223 c-3 -10 -14 -35 -25 -56 l-19 -38 30 -6 c16 -3 40 -19 53
-36 38 -48 60 -20 30 38 -9 17 -19 48 -23 70 -7 43 -37 61 -46 28z"/>
<path d="M1830 2194 c-14 -7 -39 -14 -57 -14 -32 0 -54 -17 -36 -29 26 -16 68
-133 137 -380 15 -50 14 -56 -1 -73 -23 -25 -8 -35 30 -19 18 7 55 19 82 28
66 20 73 28 48 55 -20 21 -73 163 -73 194 0 8 -4 22 -9 32 -19 36 -41 109 -48
162 -9 61 -26 71 -73 44z"/>
<path d="M1506 2111 c-3 -4 -19 -11 -36 -15 -38 -7 -115 -78 -141 -128 -36
-71 -19 -209 36 -293 29 -44 48 -65 59 -65 5 0 18 -8 29 -17 15 -14 37 -18
106 -18 78 1 91 4 137 32 28 17 61 34 72 38 27 8 29 42 6 108 -24 70 -53 56
-54 -26 0 -16 -14 -47 -32 -72 -40 -53 -73 -58 -129 -20 -35 25 -99 134 -99
169 0 7 -7 30 -15 49 -8 20 -15 65 -15 101 0 62 1 66 37 95 21 17 43 31 51 31
23 0 86 -37 126 -75 55 -50 66 -33 31 49 l-28 66 -68 0 c-37 0 -70 -4 -73 -9z"/>
<path d="M1095 1973 c-11 -2 -33 -10 -50 -18 -68 -31 -104 -45 -114 -45 -22 0
-121 -35 -121 -42 0 -5 11 -13 25 -18 14 -5 25 -16 25 -24 0 -9 6 -30 14 -48
20 -50 37 -99 47 -143 6 -22 14 -44 20 -50 5 -5 9 -17 9 -26 0 -9 8 -40 17
-69 16 -48 16 -55 1 -81 -18 -31 -13 -45 10 -27 19 16 76 38 127 48 57 12 115
29 152 46 17 8 38 14 47 14 26 0 29 24 13 87 -18 72 -38 80 -54 20 -14 -51
-46 -95 -79 -107 -13 -5 -24 -16 -24 -25 0 -41 -42 1 -65 65 -8 25 -22 64 -31
88 -8 23 -12 47 -8 53 3 6 0 18 -8 27 -8 9 -20 37 -27 62 -8 25 -17 58 -22 74
-19 60 -13 73 34 78 58 6 102 -8 121 -37 15 -23 45 -33 58 -19 3 3 -7 32 -23
65 -30 61 -37 65 -94 52z"/>
<path d="M630 1828 c-41 -5 -82 -16 -91 -24 -8 -8 -19 -14 -23 -14 -12 0 -43
-34 -60 -67 -36 -72 -1 -173 74 -210 37 -19 61 -23 141 -23 83 0 98 -3 114
-20 26 -28 23 -75 -5 -105 -19 -21 -33 -25 -77 -25 -58 0 -97 16 -153 61 -48
40 -58 23 -26 -45 14 -30 26 -59 26 -64 0 -16 27 -34 35 -22 3 5 20 10 37 10
50 0 150 31 185 57 66 50 80 152 32 230 -37 59 -73 73 -191 73 -97 0 -106 2
-127 24 -29 31 -20 67 26 102 46 35 87 28 158 -25 29 -22 55 -37 59 -34 9 10
7 41 -4 61 -5 9 -14 29 -20 45 -5 15 -15 26 -22 26 -7 -1 -47 -6 -88 -11z"/>
<path d="M1126 1794 c-3 -9 -6 -24 -6 -34 0 -9 -7 -23 -15 -30 -23 -19 -18
-36 15 -50 17 -7 35 -21 41 -31 11 -21 39 -26 39 -7 0 6 -9 41 -21 77 -12 36
-23 72 -25 79 -5 17 -21 15 -28 -4z"/>
</g>
</svg>
